<svg width="24" height="24" viewBox="0 0 24 24" fill="none" xmlns="http://www.w3.org/2000/svg">
  <rect width="24" height="24" rx="4" fill="#2563EB" />
  <path d="M20 10C20 8.89543 19.1046 8 18 8H6C4.89543 8 4 8.89543 4 10V14C4 15.1046 4.89543 16 6 16H18C19.1046 16 20 15.1046 20 14V10Z" stroke="white" stroke-width="2" stroke-linecap="round" stroke-linejoin="round"/>
  <path d="M12 13C12.5523 13 13 12.5523 13 12C13 11.4477 12.5523 11 12 11C11.4477 11 11 11.4477 11 12C11 12.5523 11.4477 13 12 13Z" fill="white" stroke="white" stroke-linecap="round" stroke-linejoin="round"/>
</svg>